<svg width="128" height="128" viewBox="0 0 128 128" fill="none" xmlns="http://www.w3.org/2000/svg">
<g clip-path="url(#clip0_85_59)">
<path d="M26.808 37.264C20.668 37.264 16 41.92 16 47.888C16 54.428 20.668 56.956 25.84 58.508C30.736 60.056 33.056 61.78 33.056 65.172C33.056 68.612 30.496 71.032 27.148 71.032C23.788 71.032 20.884 68.616 20.884 64.892C20.884 62.828 21.852 62.304 21.852 61.156C21.852 59.836 20.944 58.86 19.456 58.86C17.764 58.86 16 61.448 16 65.124C16 71.044 21.064 75.404 27.148 75.404C33.288 75.404 37.952 70.752 37.952 64.78C37.952 58.288 33.288 55.712 28.064 54.16C23.228 52.672 20.896 50.888 20.896 47.496C20.896 44.116 23.4 41.696 26.748 41.696C30.216 41.696 33.008 44.164 33.056 47.556C33.12 49.108 34.196 50.024 35.452 50.024C35.7884 50.0357 36.1234 49.9756 36.4347 49.8476C36.746 49.7196 37.0265 49.5267 37.2573 49.2819C37.4882 49.037 37.6643 48.7456 37.7737 48.4273C37.8831 48.1091 37.9235 47.7711 37.892 47.436C37.784 41.516 32.84 37.264 26.808 37.264ZM51.492 75.344C54.224 75.344 56.332 74.424 56.332 72.584C56.3364 71.9854 56.1052 71.4092 55.6883 70.9796C55.2715 70.55 54.7024 70.3016 54.104 70.288C53.304 70.288 52.74 70.628 51.432 70.628C47.904 70.628 45.124 67.588 45.124 64.028C45.124 60.18 47.964 57.128 51.556 57.128C55.592 57.128 58.156 60.228 58.156 64.708V72.924C58.156 74.364 59.292 75.34 60.656 75.34C61.964 75.34 63.096 74.364 63.096 72.924V64.536C63.096 57.656 58.384 52.6 51.664 52.6C45.4 52.6 40.224 57.48 40.224 64.024C40.224 70.344 45.352 75.344 51.492 75.344ZM76.52 90.736C82.66 90.736 87.324 86.084 87.324 80.112C87.324 73.572 82.66 71.044 77.436 69.492C72.6 67.944 70.268 66.22 70.268 62.828C70.268 59.436 72.828 56.968 76.12 56.968C79.48 56.968 82.428 59.384 82.428 63.108C82.428 65.184 81.464 65.696 81.464 66.844C81.464 68.164 82.368 69.14 83.796 69.14C85.56 69.14 87.324 66.552 87.324 62.876C87.324 56.956 82.212 52.596 76.12 52.596C69.98 52.596 65.372 57.248 65.372 63.22C65.372 69.712 69.98 72.288 75.212 73.84C80.108 75.328 82.428 77.112 82.428 80.504C82.428 83.944 79.868 86.304 76.58 86.304C73.048 86.304 70.316 83.9 70.268 80.444C70.208 78.892 69.068 78.028 67.876 78.028C66.568 78.028 65.372 78.892 65.436 80.552C65.48 86.548 70.424 90.736 76.516 90.736H76.52ZM101.204 75.34C104.384 75.34 106.9 74.424 108.652 73.328C110.356 72.24 111.032 71.312 111.032 70.288C111.032 69.2 110.232 68.224 108.76 68.224C106.996 68.224 105.58 70.864 101.252 70.864C97.444 70.864 94.424 67.824 94.424 63.976C94.424 60.176 97.324 57.08 100.964 57.08C104.892 57.08 106.996 59.668 106.996 61.328C106.996 61.792 106.656 62.024 106.196 62.024H101.42C100.116 62.024 99.148 62.888 99.148 64.036C99.148 65.292 100.116 66.22 101.42 66.22H107.964C110.464 66.22 112 64.9 112 62.66C112 57.028 107.224 52.612 100.904 52.612C94.64 52.612 89.584 57.664 89.584 63.972C89.584 70.28 94.832 75.34 101.204 75.34Z" fill="#00D639"/>
</g>
<defs>
<clipPath id="clip0_85_59">
<rect width="96" height="96" fill="white" transform="translate(16 16)"/>
</clipPath>
</defs>
</svg>
